# xmcd
#
# Track frame offsets:
#	150
#	19952
#	39006
#	57758
#	75827
#	93981
#	113033
#	132158
#	151053
#	168760
#	189377
#	209179
#	228085
#	247535
#	267904
#	286500
#
# Disc length: 4074 seconds
#
# Revision: 0
# Processed by: cddbd v1.5.2PL0 Copyright (c) Steve Scherf et al.
# Submitted via: EZCDAudioConverter 2.0.7.1
#
DISCID=b40fe810
DTITLE=Artist Name - Album Title
DYEAR=1900
DGENRE=
TTITLE0=อารยา เอ ฮาร์เกต - เจ็บที่ต้องจ่าย
TTITLE1=เอกพล มนต์ตระการ - นายร้อยหน้าลิฟต์
TTITLE2=รัชนก ศรีโลพันธุ์ - เขียนฝันไว้ข้างฝา
TTITLE3=รัชนก ศรีโลพันธุ์ - ขอเจ็บครึ่งใจ
TTITLE4=ศร สินชัย - หัวหน้าผู้บ่าวแนว
TTITLE5=ต่าย อรทัย - หน้าจอรอสาย
TTITLE6=มนต์แคน แก่นคูณ - ยามท้อขอโทรหา
TTITLE7=ไผ่ พงศธร - เต็มใจให้ตั๋ว
TTITLE8=ไหมไทย ใจตะวัน - บ่าวพันธุ์พื้นเมือง
TTITLE9=ไหมไทย ใจตะวัน - น้องมากับคำว่าใช่
TTITLE10=ศิริพร อำไพพงษ์ - ย่านบ่มีชาติหน้า
TTITLE11=แพรวา พัชรี - จองตักล่วงหน้า
TTITLE12=ตั๊กแตน ชลดา - ไม่ใช่แฟนทำแทนไม่ได้
TTITLE13=ก๊อท จักรพันธ์ - ขอโทษที่คิดถึง
TTITLE14=ไมค์ ภิรมย์พร - รอสายใจสั่งมา
TTITLE15=ต่าย อรทัย - เก็บความหลายใจไปใช้ที่อื่น
EXTD=
EXTT0=
EXTT1=
EXTT2=
EXTT3=
EXTT4=
EXTT5=
EXTT6=
EXTT7=
EXTT8=
EXTT9=
EXTT10=
EXTT11=
EXTT12=
EXTT13=
EXTT14=
EXTT15=
PLAYORDER=
